<?xml version="1.0" standalone="no"?>
<!DOCTYPE svg PUBLIC "-//W3C//DTD SVG 20010904//EN"
 "http://www.w3.org/TR/2001/REC-SVG-20010904/DTD/svg10.dtd">
<svg version="1.0" xmlns="http://www.w3.org/2000/svg"
 width="800.000000pt" height="800.000000pt" viewBox="0 0 800.000000 800.000000"
 preserveAspectRatio="xMidYMid meet">
<metadata>
Created by potrace 1.14, written by Peter Selinger 2001-2017
</metadata>
<g transform="translate(0.000000,800.000000) scale(0.100000,-0.100000)"
fill="#000000" stroke="none">
<path d="M3882 7183 c-17 -38 -56 -129 -86 -203 -30 -74 -74 -180 -98 -234
l-43 -100 -110 -21 c-256 -51 -553 -155 -765 -267 -120 -64 -349 -215 -460
-304 -104 -83 -278 -258 -366 -368 -288 -358 -497 -815 -581 -1276 -25 -134
-27 -166 -27 -430 -1 -318 9 -416 70 -660 68 -275 186 -567 318 -785 20 -33
36 -64 36 -68 0 -5 -61 -148 -136 -319 -74 -170 -134 -317 -132 -326 3 -18
294 -166 312 -159 12 5 45 77 158 342 33 77 63 143 67 148 4 4 18 -2 31 -13
13 -11 27 -20 31 -20 11 0 -30 -92 519 1185 111 259 210 488 220 510 10 22 47
110 83 195 35 85 112 265 170 400 57 135 144 337 191 450 48 113 100 234 116
270 16 36 36 83 44 105 8 22 36 87 61 145 26 58 64 146 85 195 21 50 59 138
84 198 25 59 67 155 92 215 25 59 63 148 84 197 21 50 47 110 57 135 l20 45
15 -35 c58 -134 146 -338 203 -470 37 -85 267 -618 510 -1185 244 -566 501
-1165 573 -1330 71 -165 218 -508 327 -762 116 -272 203 -463 211 -463 7 0 20
9 28 21 8 12 19 19 24 15 8 -5 87 -178 195 -427 14 -31 29 -59 35 -63 14 -8
322 141 322 157 0 6 -21 57 -46 112 -25 55 -72 161 -104 235 -32 74 -74 172
-94 217 l-36 82 56 98 c211 365 337 752 373 1143 14 147 14 413 0 538 -64 596
-358 1210 -779 1632 -321 320 -720 554 -1168 684 -124 36 -303 76 -339 76 -23
0 -14 -18 -149 300 -140 328 -131 310 -152 310 -14 0 -28 -19 -50 -67z m788
-1045 c439 -174 805 -460 1073 -839 143 -202 286 -521 347 -774 51 -212 63
-311 63 -545 1 -290 -29 -495 -108 -740 -49 -151 -158 -400 -176 -400 -9 0
-137 292 -744 1695 -79 182 -198 456 -265 610 -123 284 -293 677 -401 928 -32
75 -59 141 -59 146 0 14 129 -25 270 -81z m-1210 78 c0 -3 -84 -200 -186 -438
-102 -238 -212 -494 -244 -568 -32 -74 -142 -331 -245 -570 -104 -239 -200
-464 -215 -500 -25 -58 -447 -1037 -531 -1232 -19 -43 -37 -78 -40 -78 -12 0
-129 269 -168 386 -87 265 -116 459 -115 769 0 248 16 373 69 574 46 171 185
505 255 611 148 225 183 271 315 409 262 274 579 473 950 597 125 41 155 49
155 40z"/>
<path d="M3912 5569 c-11 -27 -66 -159 -152 -359 -32 -74 -76 -178 -98 -230
-22 -52 -83 -196 -135 -320 -52 -124 -125 -297 -162 -385 -37 -88 -110 -259
-162 -380 -174 -403 -403 -944 -498 -1175 -24 -58 -112 -265 -195 -460 -109
-256 -149 -359 -143 -370 17 -26 145 -117 254 -180 235 -135 538 -257 774
-313 333 -79 710 -79 1063 -1 326 72 711 242 951 419 32 23 68 48 80 54 27 15
27 11 -49 191 -32 74 -117 275 -190 445 -329 774 -388 913 -475 1115 -119 275
-503 1176 -630 1475 -142 337 -205 479 -215 489 -6 6 -13 0 -18 -15z m136
-1214 c61 -143 143 -339 184 -435 l75 -175 -76 -2 c-222 -8 -681 -7 -681 1 0
4 45 112 99 240 85 198 231 546 262 625 6 15 13 21 19 15 5 -5 58 -126 118
-269z m627 -1457 c108 -255 217 -508 240 -563 98 -228 127 -308 113 -317 -42
-29 -327 -160 -403 -186 -265 -90 -421 -116 -690 -116 -267 0 -417 24 -660
106 -141 47 -353 146 -442 206 -15 10 -4 38 300 747 113 264 213 500 223 525
10 25 22 48 28 52 6 4 255 8 552 8 l542 0 197 -462z"/>
<path d="M3809 2946 c-76 -29 -118 -57 -167 -110 -73 -81 -96 -146 -97 -271 0
-93 2 -105 32 -166 40 -80 111 -150 191 -187 49 -23 70 -27 152 -27 111 0 168
17 246 76 99 73 149 181 149 319 0 74 -4 93 -31 150 -44 91 -102 153 -181 192
-59 29 -77 33 -162 35 -63 2 -108 -2 -132 -11z"/>
<path d="M1449 1631 c-22 -22 -29 -39 -29 -68 0 -61 19 -85 98 -125 91 -47
130 -49 174 -9 28 25 33 36 33 76 0 55 -21 77 -121 125 -80 39 -117 39 -155 1z"/>
<path d="M6236 1618 c-60 -32 -82 -49 -92 -73 -28 -67 22 -145 93 -145 43 0
164 61 193 97 29 37 22 94 -16 134 -39 41 -80 38 -178 -13z"/>
</g>
</svg>
